<?xml version="1.0" encoding="utf-8"?>
<!-- Generator: Adobe Illustrator 23.0.3, SVG Export Plug-In . SVG Version: 6.00 Build 0)  -->
<svg version="1.1" id="Layer_2_1_" xmlns="http://www.w3.org/2000/svg" xmlns:xlink="http://www.w3.org/1999/xlink" x="0px" y="0px"
	 viewBox="0 0 490.7 437" style="enable-background:new 0 0 490.7 437;" xml:space="preserve">
<style type="text/css">
	.st0{fill:#61DAFB;}
</style>
<g>
	<path class="st0" d="M490.7,218.6c0-32.5-40.7-63.3-103.1-82.4C402,72.6,395.6,22,367.4,5.8C360.9,2,353.3,0.2,345,0.2v22.3
		c4.6,0,8.3,0.9,11.4,2.6c13.6,7.8,19.5,37.5,14.9,75.7c-1.1,9.4-2.9,19.3-5.1,29.4c-19.6-4.8-41-8.5-63.5-10.9
		c-13.5-18.5-27.5-35.3-41.6-50c32.6-30.3,63.2-46.9,84-46.9V0.1l0,0c-27.5,0-63.5,19.6-99.9,53.6c-36.4-33.8-72.4-53.2-99.9-53.2
		v22.3c20.7,0,51.4,16.5,84,46.6c-14,14.7-28,31.4-41.3,49.9c-22.6,2.4-44,6.1-63.6,11c-2.3-10-4-19.7-5.2-29
		c-4.7-38.2,1.1-67.9,14.6-75.8c3-1.8,6.9-2.6,11.5-2.6V0.6l0,0c-8.4,0-16,1.8-22.6,5.6c-28.1,16.2-34.4,66.7-19.9,130.1
		C40.6,155.5,0.1,186.2,0.1,218.6c0,32.5,40.7,63.3,103.1,82.4c-14.4,63.6-8,114.2,20.2,130.4c6.5,3.8,14.1,5.6,22.5,5.6
		c27.5,0,63.5-19.6,99.9-53.6c36.4,33.8,72.4,53.2,99.9,53.2c8.4,0,16-1.8,22.6-5.6c28.1-16.2,34.4-66.7,19.9-130.1
		C450.2,281.8,490.7,251,490.7,218.6z M360.5,151.9c-3.7,12.9-8.3,26.2-13.5,39.5c-4.1-8-8.4-16-13.1-24c-4.6-8-9.5-15.8-14.4-23.4
		C333.7,146.1,347.4,148.7,360.5,151.9z M314.7,258.4c-7.8,13.5-15.8,26.3-24.1,38.2c-14.9,1.3-30,2-45.2,2c-15.1,0-30.2-0.7-45-1.9
		c-8.3-11.9-16.4-24.6-24.2-38c-7.6-13.1-14.5-26.4-20.8-39.8c6.2-13.4,13.2-26.8,20.7-39.9c7.8-13.5,15.8-26.3,24.1-38.2
		c14.9-1.3,30-2,45.2-2c15.1,0,30.2,0.7,45,1.9c8.3,11.9,16.4,24.6,24.2,38c7.6,13.1,14.5,26.4,20.8,39.8
		C329.1,231.9,322.2,245.3,314.7,258.4z M347,245.4c5.4,13.4,10,26.8,13.8,39.8c-13.1,3.2-26.9,5.9-41.2,8
		c4.9-7.7,9.8-15.6,14.4-23.7C338.6,261.5,342.9,253.4,347,245.4z M245.6,352.1c-9.3-9.6-18.6-20.3-27.8-32c9,0.4,18.2,0.7,27.5,0.7
		c9.4,0,18.7-0.2,27.8-0.7C264.1,331.8,254.8,342.5,245.6,352.1z M171.2,293.2c-14.2-2.1-27.9-4.7-41-7.9
		c3.7-12.9,8.3-26.2,13.5-39.5c4.1,8,8.4,16,13.1,24S166.3,285.6,171.2,293.2z M245.1,85.1c9.3,9.6,18.6,20.3,27.8,32
		c-9-0.4-18.2-0.7-27.5-0.7c-9.4,0-18.7,0.2-27.8,0.7C226.6,105.4,235.9,94.7,245.1,85.1z M171.1,144c-4.9,7.7-9.8,15.6-14.4,23.7
		c-4.6,8-8.9,16-13,24c-5.4-13.4-10-26.8-13.8-39.8C143,148.8,156.8,146.1,171.1,144z M80.6,269.2c-35.4-15.1-58.3-34.9-58.3-50.6
		S45.2,183,80.6,168c8.6-3.7,18-7,27.7-10.1c5.7,19.6,13.2,40,22.5,60.9c-9.2,20.8-16.6,41.1-22.2,60.6
		C98.7,276.3,89.3,272.9,80.6,269.2z M134.4,412.1c-13.6-7.8-19.5-37.5-14.9-75.7c1.1-9.4,2.9-19.3,5.1-29.4
		c19.6,4.8,41,8.5,63.5,10.9c13.5,18.5,27.5,35.3,41.6,50c-32.6,30.3-63.2,46.9-84,46.9C141.2,414.7,137.4,413.8,134.4,412.1z
		 M371.6,335.9c4.7,38.2-1.1,67.9-14.6,75.8c-3,1.8-6.9,2.6-11.5,2.6c-20.7,0-51.4-16.5-84-46.6c14-14.7,28-31.4,41.3-49.9
		c22.6-2.4,44-6.1,63.6-11C368.7,316.9,370.5,326.6,371.6,335.9z M410.1,269.2c-8.6,3.7-18,7-27.7,10.1c-5.7-19.6-13.2-40-22.5-60.9
		c9.2-20.8,16.6-41.1,22.2-60.6c9.9,3.1,19.3,6.5,28.1,10.2c35.4,15.1,58.3,34.9,58.3,50.6C468.4,234.3,445.5,254.2,410.1,269.2z"/>
	<path class="st0" d="M145.2,0.5L145.2,0.5L145.2,0.5z"/>
	<circle class="st0" cx="245.3" cy="218.6" r="45.7"/>
	<path class="st0" d="M344.9,0.2L344.9,0.2L344.9,0.2z"/>
</g>
</svg>
